<?xml version='1.0' encoding='utf-8'?>
<svg xmlns="http://www.w3.org/2000/svg" enable-background="new 0 0 44.2 42.05" version="1.1" viewBox="0 0 44.2 42.05"> <g clip-rule="evenodd" fill-rule="evenodd"> <radialGradient id="a" cx="14.4" cy="16.6" r="28.012" gradientTransform="matrix(1 0 0 -1 0 33.2)" gradientUnits="userSpaceOnUse"> <stop stop-color="#E5F1F7" offset="0"/> <stop stop-color="#89ADC4" offset="1"/> </radialGradient> <path d="m26.25 2.2c2.066 0.633 4.45 1.033 7.15 1.2l0.35 5.3 3.75 5.95 2.5 10.35c-2.5 3.333-4.384 5.316-5.65 5.95-0.767 0.366-1.566 0.899-2.399 1.6-0.434 0.334-0.783 0.634-1.05 0.9-3.101 1.434-5.601 2.366-7.5 2.8-1.167 0.267-2.817 0.35-4.95 0.25l-2.85-0.25c-2.3-1.667-4.184-2.6-5.65-2.8-1.401-0.233-2.384-0.417-2.951-0.55-0.933-0.267-1.617-0.617-2.05-1.051l-4.7-5c-0.167-0.733-0.25-1.549-0.25-2.449 0-1.8 0.4-3.167 1.2-4.1 1.267-1.466 2.2-2.816 2.8-4.05 0.833-3.767 1.883-6.583 3.15-8.45 1.233-1.9 3-3.767 5.3-5.6l5-2.2 3.2 0.75c2.433 0.567 4.3 1.05 5.6 1.45z" fill="url(#a)"/> <path d="m33.4 3.4 0.35 5.3 3.75 5.95 2.5 10.35c-2.5 3.333-4.384 5.316-5.65 5.95-0.767 0.366-1.566 0.899-2.399 1.6-0.434 0.334-0.783 0.634-1.05 0.9-3.101 1.434-5.601 2.366-7.5 2.8-1.167 0.267-2.817 0.35-4.95 0.25l-2.85-0.25c-2.3-1.667-4.184-2.6-5.65-2.8-1.401-0.233-2.384-0.417-2.951-0.55-0.933-0.267-1.617-0.617-2.05-1.051l-2.4-2.5 2.6 1.601 4.6 0.2 8.15 1.45c3.333-1.267 5.067-2.1 5.2-2.5 0.134-0.433 0.334-2.583 0.601-6.449l1.7-1.25c0.267-2.5 0.267-4.167 0-5-0.2-0.533-0.667-1.15-1.4-1.85l-1.1-0.9 0.6-5.4 2.45-1.35c1.767-0.933 3.033-1.533 3.8-1.8 1.266-0.401 2.482-1.301 3.649-2.701z" fill="#97B4C4"/> <path d="m12.25 32.6h5.65l-0.1 0.851c0.2 0.533 1 0.8 2.4 0.8 1.934 0 3.6-0.134 5-0.4 0.7-0.133 1.383-0.833 2.05-2.1l1.25-5.8 0.85 0.1c0.733 0 1.5-0.184 2.301-0.55 1.233-0.566 2.55-1.116 3.949-1.65l0.65 1.65c0.167 0.566 0.684 0.5 1.55-0.2 0.934-0.767 1.351-2.133 1.25-4.1l0.95 3.799c-2.5 3.333-4.384 5.316-5.65 5.95-0.767 0.366-1.566 0.899-2.399 1.6-0.434 0.334-0.783 0.634-1.05 0.9-3.101 1.434-5.601 2.366-7.5 2.8-1.167 0.267-2.817 0.35-4.95 0.25l-2.85-0.25c-2.3-1.667-4.184-2.6-5.65-2.8-1.633-0.3-2.65-0.5-3.05-0.601 2.766-0.165 4.549-0.249 5.349-0.249z" fill="#7D9AAB"/> <path d="m22.45 0.75c0.434 0 1.833 0.2 4.2 0.6l1.35 0.75c0.934 0.5 1.517 0.75 1.75 0.75 0.434 0 1.65 0.183 3.65 0.55-1.3 1.267-2.233 2.033-2.8 2.3-1.1 0.5-2.55 1.05-4.35 1.65-0.8 0.267-1.5 0.667-2.1 1.2l-0.65 0.7c-3.2-1.8-5-2.85-5.4-3.15l-1.9-1.25c-1.367-0.133-2.267-0.333-2.7-0.6l-1.8-1.4 0.8-0.85c0.567-0.6 0.967-0.95 1.2-1.05l3.75-0.95 5 0.75z" fill="#E3F3FF"/> <path d="m1.2 20.3 0.45-1.25 2.35-2.8 3.3 0.3 3.1 0.85c1.033 0.333 1.817 0.617 2.35 0.85 0.833 0.433 1.933 0.7 3.3 0.8-1.466 0.534-2.5 0.8-3.1 0.8-1.1 0-2.15-0.117-3.15-0.35-0.367-0.1-1-0.117-1.9-0.05-1.066 0.033-2.2 0.167-3.4 0.4-1.767 0.3-2.867 0.45-3.3 0.45z" fill="#E3F3FF"/> <path d="m22.95 23.9-5.15-0.8c-0.966 1.267-1.867 2.217-2.7 2.851-0.833 0.6-1.967 1.166-3.4 1.7 0.933-0.934 1.55-1.667 1.85-2.2 0.2-0.334 0.65-0.9 1.35-1.7l1-1.1 2.5-0.651c0.633-0.1 1.983-0.15 4.05-0.15l0.5 2.05z" fill="#E3F3FF"/> <path d="m24.5 23.1 1.25-2.8-0.45 2.65-1.25 1.55 0.3 1.45-0.949 2.3-0.301 1.85-1.25 1.3-3.3 0.949-10.95-1.549h6.4l1 0.101c0.833 0.066 1.6 0.033 2.3-0.101 1.167-0.233 2.1-0.816 2.8-1.75l2.85-4.2 1.55-1.75z" fill="#E3F3FF"/> <path d="m9.2 22 1.55-2.35 2.2 0.2 3.1-0.8 1.55 3.101-1.7 0.5-4.2 5c-0.733 0-1.467-0.051-2.2-0.15-0.467-0.066-1.017-0.033-1.65 0.1l-0.85 0.199c0.633-1.033 1.1-1.916 1.4-2.649 0.2-0.467 0.383-1.134 0.55-2l0.25-1.151z" fill="#9FC0D4"/> <path d="m22.95 23.9v0.949l-1.55 0.9-1.6 2.05h-2l1.05-2.649c0.1-0.2-0.05-0.601-0.45-1.2l-0.6-0.85 5.15 0.8z" fill="#9FC0D4"/> <path d="m19.35 12.15 0.6-0.15h1.6l-0.95 1.55-2.5 0.8-2.2-0.6 0.5-0.05c0.4-0.1 0.867-0.25 1.4-0.45 0.833-0.3 1.35-0.667 1.55-1.1z" fill="#9FC0D4"/> <path d="m2.875 20.45c0.259-0.044 0.834-0.177 1.725-0.4 1.066-0.267 2.017-0.4 2.85-0.4-0.4 1.167-0.767 1.75-1.1 1.75-0.167 0-0.417-0.117-0.75-0.35-0.434-0.267-0.7-0.417-0.8-0.45l-1.925-0.15z" fill="#fff"/> <path d="m4.95 22c0.9 0 1.316 0.35 1.25 1.05-0.067 0.733-0.434 1.017-1.1 0.851-0.6-0.134-0.9-0.483-0.9-1.051 0-0.567 0.25-0.85 0.75-0.85z" fill="#fff"/> <path d="m6.35 24.2c0.9-0.066 1.2 0.399 0.9 1.399-0.267 0.967-0.817 1.335-1.65 1.101-0.767-0.2-0.95-0.667-0.55-1.4 0.367-0.666 0.8-1.033 1.3-1.1z" fill="#fff"/> <path d="m2.6 22.95c0.7 0 0.95 0.35 0.75 1.05-0.167 0.7-0.567 1.083-1.2 1.15-0.667 0.066-0.933-0.284-0.8-1.051 0.1-0.766 0.517-1.149 1.25-1.149z" fill="#fff"/> <path d="m8.25 19.85c0.733 0 1.117 0.333 1.15 1s-0.4 1.1-1.3 1.3c-0.9 0.234-1.267-0.084-1.1-0.95 0.2-0.9 0.617-1.35 1.25-1.35z" fill="#fff"/> <path d="m8.85 8.25c0.667-0.433 1.017-0.217 1.05 0.65 0 0.833-0.45 1.4-1.35 1.7s-1.283 0.117-1.15-0.55 0.617-1.267 1.45-1.8z" fill="#fff"/> <path d="m12 7c0.8 0.067 1.183 0.433 1.15 1.1-0.066 0.667-0.55 1.033-1.45 1.1-0.9 0.066-1.25-0.3-1.05-1.1 0.233-0.8 0.683-1.167 1.35-1.1z" fill="#fff"/> <path d="m15.3 9.8c0.867-0.367 1.767-0.133 2.7 0.7 0.867 0.8 1.05 1.4 0.55 1.8-0.466 0.4-0.983 0.617-1.55 0.65s-1.3-0.067-2.2-0.3c-0.767-0.233-1.033-0.717-0.8-1.45 0.233-0.667 0.667-1.133 1.3-1.4z" fill="#fff"/> <path d="m12.15 12.15c0.833-0.066 1.033 0.3 0.6 1.1s-1 1.117-1.7 0.95c-0.667-0.133-0.816-0.5-0.45-1.1 0.367-0.567 0.883-0.883 1.55-0.95z" fill="#fff"/> <path d="m7 12c1.1-0.5 1.7-0.3 1.8 0.6s-0.25 1.433-1.05 1.6c-0.667 0.133-1.083-0.133-1.25-0.8-0.167-0.7 0-1.167 0.5-1.4z" fill="#fff"/> <path d="m18.55 16.85c0.767 0.233 0.934 0.717 0.5 1.45-0.466 0.733-1.05 0.983-1.75 0.75-0.667-0.233-0.783-0.7-0.35-1.4s0.967-0.967 1.6-0.8z" fill="#fff"/> <path d="m21.85 18.1c0.6-0.1 1.167 0.15 1.7 0.75 0.566 0.633 0.467 1.167-0.3 1.6-0.667 0.367-1.2 0.483-1.6 0.35-0.433-0.267-0.833-0.433-1.2-0.5-0.534-0.066-0.6-0.417-0.2-1.05s0.933-1.017 1.6-1.15z" fill="#fff"/> <path d="m21.4 16.85c-0.667 0.333-1.167 0.367-1.5 0.1-0.3-0.267-0.333-0.617-0.1-1.05 0.267-0.4 0.784-0.433 1.55-0.1s0.784 0.683 0.05 1.05z" fill="#fff"/> <path d="m20.75 9.35c0.667 0.333 0.883 0.8 0.65 1.4-0.233 0.633-0.767 0.8-1.6 0.5-0.8-0.3-1-0.767-0.6-1.4 0.433-0.633 0.95-0.8 1.55-0.5z" fill="#fff"/> <path d="m16.85 7.45c0.667 0.167 0.95 0.35 0.85 0.55s-0.483 0.333-1.15 0.4c-0.633 0.067-0.917-0.117-0.85-0.55 0.1-0.4 0.483-0.533 1.15-0.4z" fill="#fff"/> <path d="m22 1.6c1.066 0 1.316 0.5 0.75 1.5s-1.5 1.566-2.8 1.7c-1.267 0.167-1.483-0.316-0.65-1.45 0.833-1.167 1.733-1.75 2.7-1.75z" fill="#fff"/> <path d="m24.8 3c0.7-0.067 1.1 0.183 1.2 0.75 0.134 0.567-0.316 0.817-1.35 0.75-0.967-0.067-1.284-0.333-0.95-0.8 0.267-0.433 0.633-0.667 1.1-0.7z" fill="#fff"/> <path d="m21.85 8.25c-0.4-0.2-0.983-0.567-1.75-1.1l-1.05-0.75c0.2 0.067 0.5 0.15 0.9 0.25 0.5 0.1 1.283 0.117 2.35 0.05 1-0.067 1.566-0.117 1.7-0.15 0.167-0.033 0.8-0.2 1.9-0.5 1.3-0.267 2.816-0.683 4.55-1.25l1.55-0.45c-2.167 1.867-3.833 2.967-5 3.3-0.7 0.2-1.5 0.517-2.4 0.95l-1.1 0.65c-0.467-0.367-1.017-0.7-1.65-1z" fill="#fff"/> <path d="m15.45 2.65c1.167-0.133 1.767 0.1 1.8 0.7 0.067 0.6-0.433 0.933-1.5 1-0.933 0.066-1.383-0.184-1.35-0.75 0.067-0.533 0.417-0.85 1.05-0.95z" fill="#fff"/> <path d="m15.9 26.55c1.033 0 1.25 0.316 0.65 0.95-0.566 0.6-1.35 0.85-2.35 0.75-1-0.066-1.217-0.366-0.65-0.9 0.6-0.534 1.383-0.8 2.35-0.8z" fill="#fff"/> <path d="m10.75 28.75c0.8 0.066 1.117 0.3 0.95 0.7-0.133 0.366-0.667 0.55-1.6 0.55-0.867 0-1.15-0.233-0.85-0.7 0.333-0.434 0.833-0.616 1.5-0.55z" fill="#fff"/> <path d="m15.3 29.05c0.967-0.066 1.3 0.15 1 0.65s-0.85 0.75-1.65 0.75-1.1-0.217-0.9-0.65c0.167-0.434 0.683-0.684 1.55-0.75z" fill="#fff"/> <path d="m27.8 9.65c1.134-0.167 1.483 0.317 1.05 1.45-0.399 1.1-1.216 1.717-2.449 1.85s-1.601-0.333-1.101-1.4c0.5-1.1 1.334-1.733 2.5-1.9z" fill="#C1DAE8"/> <path d="m30.45 10.75c1.033-0.133 1.416 0.233 1.149 1.1-0.267 0.9-0.866 1.267-1.8 1.1-0.833-0.133-1.083-0.517-0.75-1.15 0.301-0.6 0.767-0.95 1.401-1.05z" fill="#C1DAE8"/> <path d="m34.5 13.75c1.233 0 1.717 0.333 1.45 1-0.233 0.633-0.867 1.067-1.9 1.3-0.866 0.233-1.133-0.083-0.8-0.95 0.333-0.9 0.75-1.35 1.25-1.35z" fill="#C1DAE8"/> <path d="m28.55 15.6c1.367 0.133 1.917 0.733 1.65 1.8s-1.017 1.717-2.25 1.95c-1.134 0.233-1.533-0.35-1.2-1.75 0.366-1.433 0.967-2.1 1.8-2z" fill="#C1DAE8"/> <path d="m32.3 19.2c1.134 0 1.45 0.433 0.95 1.3s-1.233 1.267-2.2 1.2c-0.866-0.067-1.05-0.5-0.55-1.3 0.467-0.8 1.066-1.2 1.8-1.2z" fill="#C1DAE8"/> <path d="m36.55 21.4c0.733 0 1.184 0.317 1.351 0.95 0.166 0.667-0.134 1.084-0.9 1.25-0.733 0.134-1.134-0.199-1.2-1-0.034-0.8 0.216-1.2 0.749-1.2z" fill="#C1DAE8"/> <path d="m28.55 22.8c1.267-0.166 1.934 0.367 2 1.601 0.066 1.166-0.616 1.683-2.05 1.55-1.3-0.167-1.833-0.717-1.6-1.65 0.2-0.867 0.75-1.367 1.65-1.501z" fill="#C1DAE8"/> <path d="m32.65 22.95c0.966-0.3 1.517-0.117 1.649 0.55 0.101 0.634-0.3 1.083-1.2 1.35-0.767 0.2-1.116-0.033-1.05-0.699 0.034-0.701 0.234-1.101 0.601-1.201z" fill="#C1DAE8"/> </g> </svg>